<svg id="Layer_1" data-name="Layer 1" xmlns="http://www.w3.org/2000/svg" viewBox="0 0 97.33 96.85"><defs><style>.cls-1{fill:none;}.cls-2{fill:#ff4000;}</style></defs><title>Artboard 2</title><rect class="cls-1" x="-121.89" y="-231.83" width="792" height="612"/><polygon class="cls-2" points="44.18 30.77 19.76 16.68 19.76 29.42 33.15 37.15 44.18 30.77"/><polygon class="cls-2" points="19.76 67.44 19.76 80.18 74.76 48.44 63.73 42.06 19.76 67.44"/><polygon class="cls-2" points="52.69 66.08 77.1 80.17 77.1 67.43 63.73 59.71 52.69 66.08"/><polygon class="cls-2" points="33.15 54.81 77.1 29.42 77.1 16.68 22.11 48.44 33.15 54.81"/><path class="cls-2" d="M93,0H3.83A3.84,3.84,0,0,0,0,3.84V93a3.83,3.83,0,0,0,3.83,3.81H93A3.83,3.83,0,0,0,96.87,93V3.84A3.83,3.83,0,0,0,93,0ZM81.36,30.77a1.91,1.91,0,0,1-1,1.67L68,39.61l12.41,7.17a1.81,1.81,0,0,1,.7.7,1.92,1.92,0,0,1-.7,2.62L68,57.27l12.4,7.17a1.89,1.89,0,0,1,1,1.64V84.23a1.93,1.93,0,0,1-1.92,1.93,1.89,1.89,0,0,1-.94-.26L48.44,68.54,18.37,85.9a1.9,1.9,0,0,1-.95.26,1.94,1.94,0,0,1-1.92-1.93V66.08a1.92,1.92,0,0,1,1-1.64l12.41-7.17L16.46,50.1a1.92,1.92,0,0,1-.7-2.62,2,2,0,0,1,.7-.7l12.42-7.17-12.4-7.17a2,2,0,0,1-1-1.67V12.64a1.93,1.93,0,0,1,1.92-1.92,2,2,0,0,1,1,.25L48.44,28.34,78.48,11a2,2,0,0,1,1-.26,1.92,1.92,0,0,1,1.92,1.92Z"/></svg>