<svg id="Group_32" data-name="Group 32" xmlns="http://www.w3.org/2000/svg" viewBox="0 0 528.192 93.25">
  <defs>
    <style>
      .cls-1 {
        fill: #ff4000;
      }
    </style>
  </defs>
  <path id="Path_13" data-name="Path 13" class="cls-1" d="M151.7,78V16.441a1.466,1.466,0,0,1,1.541-1.541h9.248c1.156,0,1.638.482,1.638,1.541l.963,22.927c0,1.06.578,1.541,1.638,1.541h24.565c1.156,0,1.638-.482,1.638-1.541l.963-22.927c0-1.156.578-1.541,1.638-1.541h9.248a1.466,1.466,0,0,1,1.541,1.541V78a1.466,1.466,0,0,1-1.541,1.541h-9.248c-1.156,0-1.638-.482-1.638-1.541l-.963-24.276c0-1.156-.578-1.541-1.638-1.541H166.728c-1.156,0-1.638.482-1.638,1.541L164.127,78c0,1.156-.578,1.541-1.638,1.541h-9.248A1.522,1.522,0,0,1,151.7,78Z" transform="translate(-5.563 -0.546)"/>
  <path id="Path_14" data-name="Path 14" class="cls-1" d="M229,65.089V16.441c0-1.156.482-1.541,1.541-1.541h51.442a1.466,1.466,0,0,1,1.541,1.541V31.277c0,1.156-.482,1.541-1.541,1.541h-6.454a2.086,2.086,0,0,1-2.119-1.445l-1.349-3.757a1.92,1.92,0,0,0-2.119-1.445H244.413c-1.156,0-1.541.482-1.541,1.541v13c0,1.156.482,1.541,1.541,1.541h23.7c1.156,0,1.541.482,1.541,1.541v6.069c0,1.156-.482,1.638-1.541,1.734l-23.7,2.794c-1.156.1-1.541.674-1.541,1.734v7.129a4.779,4.779,0,0,0,5.009,5.106h34.2c1.156,0,1.541.482,1.541,1.541v8a1.466,1.466,0,0,1-1.541,1.541H243.354C234.684,79.539,229,73.856,229,65.089Z" transform="translate(-8.398 -0.546)"/>
  <path id="Path_15" data-name="Path 15" class="cls-1" d="M305.6,65.089V16.441c0-1.156.482-1.541,1.541-1.541h10.693c1.156,0,1.541.482,1.541,1.541V63.259a4.8,4.8,0,0,0,5.106,5.106h20.23c1.252,0,1.541-.385,1.734-1.541l1.83-13c.193-1.156.674-1.541,1.734-1.541h7.321c1.156,0,1.541.482,1.541,1.541V78a1.466,1.466,0,0,1-1.541,1.541H319.857C311.38,79.539,305.6,73.856,305.6,65.089Z" transform="translate(-11.208 -0.546)"/>
  <path id="Path_16" data-name="Path 16" class="cls-1" d="M414.5,77.709l9.055-30.248a4,4,0,0,0,0-2.986L415.46,16.538c-.289-1.06.289-1.638,1.349-1.638h7.9a1.879,1.879,0,0,1,2.119,1.252l10.308,23.409a2.027,2.027,0,0,0,2.216,1.445h7.418a2.128,2.128,0,0,0,2.216-1.445l10.307-23.409c.482-1.06.867-1.252,2.119-1.252h7.9c1.06,0,1.638.674,1.349,1.638L462.47,44.474a4,4,0,0,0,0,2.986l9.055,30.248c.289,1.06-.1,1.83-1.252,1.83h-8.959a2.057,2.057,0,0,1-2.216-1.445L448.791,53.722a2.027,2.027,0,0,0-2.216-1.445h-7.418a2.2,2.2,0,0,0-2.216,1.445L426.731,78.094a1.967,1.967,0,0,1-2.216,1.445h-8.959C414.593,79.539,414.207,78.672,414.5,77.709Z" transform="translate(-15.198 -0.546)"/>
  <path id="Path_17" data-name="Path 17" class="cls-1" d="M382.641,79.539A1.466,1.466,0,0,1,381.1,78V16.441a1.466,1.466,0,0,1,1.541-1.541h10.693a1.466,1.466,0,0,1,1.541,1.541V78a1.466,1.466,0,0,1-1.541,1.541Z" transform="translate(-13.976 -0.546)"/>
  <g id="Group_5" data-name="Group 5" transform="translate(479.351 14.257)">
    <path id="Path_18" data-name="Path 18" class="cls-1" d="M515.229,44.952c-.289,0-.482-.1-.578-.482L508.582,32.14h-6.647a.255.255,0,0,0-.289.289V44.47a.455.455,0,0,1-.482.482h-3.083a.455.455,0,0,1-.482-.482V15.282a.455.455,0,0,1,.482-.482h10.886c5.587,0,9.441,3.468,9.441,8.67a8.22,8.22,0,0,1-5.973,8.188l6.454,12.716a.353.353,0,0,1-.289.578Zm-.578-21.482c0-3.179-2.119-5.009-5.587-5.009h-7.032a.255.255,0,0,0-.289.289V28.19a.255.255,0,0,0,.289.289h7.032C512.531,28.479,514.651,26.649,514.651,23.47Z" transform="translate(-497.6 -14.8)"/>
    <path id="Path_19" data-name="Path 19" class="cls-1" d="M528.5,15.282a.455.455,0,0,1,.482-.482h18.111a.455.455,0,0,1,.482.482v2.794a.455.455,0,0,1-.482.482H532.738a.255.255,0,0,0-.289.289v8.863a.255.255,0,0,0,.289.289h12.138a.455.455,0,0,1,.482.482v2.794a.455.455,0,0,1-.482.482H532.738a.255.255,0,0,0-.289.289V41a.255.255,0,0,0,.289.289h14.354a.455.455,0,0,1,.482.482v2.794a.455.455,0,0,1-.482.482H528.982a.455.455,0,0,1-.482-.482Z" transform="translate(-498.733 -14.8)"/>
  </g>
  <g id="Group_6" data-name="Group 6">
    <path id="Path_20" data-name="Path 20" class="cls-1" d="M43.305,30.283,19.8,16.7V28.934l12.812,7.418Z" transform="translate(-0.726 -0.612)"/>
    <path id="Path_21" data-name="Path 21" class="cls-1" d="M19.8,66.472V78.8L72.783,48.169,62.09,42.1Z" transform="translate(-0.726 -1.544)"/>
    <path id="Path_22" data-name="Path 22" class="cls-1" d="M52.7,65.865,76.205,79.448V67.118L63.3,59.7Z" transform="translate(-1.933 -2.189)"/>
    <path id="Path_23" data-name="Path 23" class="cls-1" d="M32.7,53.4,75.083,28.934V16.7L22.1,47.237Z" transform="translate(-0.811 -0.612)"/>
    <path id="Path_24" data-name="Path 24" class="cls-1" d="M89.589,0H3.661A3.659,3.659,0,0,0,0,3.661V89.589A3.659,3.659,0,0,0,3.661,93.25H89.589a3.659,3.659,0,0,0,3.661-3.661V3.661A3.542,3.542,0,0,0,89.589,0ZM78.415,29.67a1.987,1.987,0,0,1-.963,1.638l-11.945,6.84,11.945,6.936a2.251,2.251,0,0,1,.674.674,1.862,1.862,0,0,1-.674,2.5L65.506,55.2l11.945,6.936a1.716,1.716,0,0,1,.963,1.541V81.208a1.829,1.829,0,0,1-1.83,1.83,1.345,1.345,0,0,1-.867-.289L46.625,65.988,17.725,82.75a1.627,1.627,0,0,1-.963.289,1.829,1.829,0,0,1-1.83-1.83V63.676a1.716,1.716,0,0,1,.963-1.541L27.84,55.2,15.895,48.263a1.862,1.862,0,0,1-.674-2.5,2.251,2.251,0,0,1,.674-.674L27.84,38.148,15.895,31.212a1.865,1.865,0,0,1-.963-1.638V12.138a1.829,1.829,0,0,1,1.83-1.83,1.627,1.627,0,0,1,.963.289l29,16.762L75.621,10.6a1.627,1.627,0,0,1,.963-.289,1.829,1.829,0,0,1,1.83,1.83Z"/>
  </g>
</svg>
