<svg id="Group_29" data-name="Group 29" xmlns="http://www.w3.org/2000/svg" viewBox="0 0 75.118 75.115">
  <defs>
    <style>
      .cls-1 {
        fill: #ff4000;
      }
    </style>
  </defs>
  <path id="Path_31" data-name="Path 31" class="cls-1" d="M38.734,27.641,19.8,16.7v9.855L30.121,32.53Z" transform="translate(-4.436 -3.741)"/>
  <path id="Path_32" data-name="Path 32" class="cls-1" d="M19.8,61.732v9.933L62.479,46.989,53.866,42.1Z" transform="translate(-4.436 -9.431)"/>
  <path id="Path_33" data-name="Path 33" class="cls-1" d="M52.7,64.666,71.634,75.608V65.675L61.236,59.7Z" transform="translate(-11.806 -13.374)"/>
  <path id="Path_34" data-name="Path 34" class="cls-1" d="M30.636,46.265l34.143-19.71V16.7L22.1,41.3Z" transform="translate(-4.951 -3.741)"/>
  <path id="Path_35" data-name="Path 35" class="cls-1" d="M72.166,0H2.949A2.947,2.947,0,0,0,0,2.949V72.166a2.947,2.947,0,0,0,2.949,2.949H72.166a2.947,2.947,0,0,0,2.949-2.949V2.949A2.853,2.853,0,0,0,72.166,0Zm-9,23.9a1.6,1.6,0,0,1-.776,1.319l-9.622,5.509,9.622,5.587a1.813,1.813,0,0,1,.543.543,1.5,1.5,0,0,1-.543,2.018l-9.622,5.587,9.622,5.587a1.382,1.382,0,0,1,.776,1.242V65.415a1.473,1.473,0,0,1-1.474,1.474,1.083,1.083,0,0,1-.7-.233l-23.435-13.5-23.28,13.5a1.311,1.311,0,0,1-.776.233,1.473,1.473,0,0,1-1.474-1.474V51.293a1.382,1.382,0,0,1,.776-1.242l9.622-5.587L12.8,38.877a1.5,1.5,0,0,1-.543-2.018,1.813,1.813,0,0,1,.543-.543l9.622-5.587L12.8,25.142a1.5,1.5,0,0,1-.776-1.319V9.777A1.473,1.473,0,0,1,13.5,8.3a1.311,1.311,0,0,1,.776.233l23.357,13.5,23.28-13.5a1.311,1.311,0,0,1,.776-.233,1.473,1.473,0,0,1,1.474,1.474Z"/>
</svg>
