<svg id="Group_11" data-name="Group 11" xmlns="http://www.w3.org/2000/svg" viewBox="0 0 59.079 59.077">
  <defs>
    <style>
      .cls-1 {
        fill: #fff;
      }
    </style>
  </defs>
  <path id="Path_26" data-name="Path 26" class="cls-1" d="M34.691,25.305,19.8,16.7v7.751l8.117,4.7Z" transform="translate(-7.716 -6.508)"/>
  <path id="Path_27" data-name="Path 27" class="cls-1" d="M19.8,57.54v7.812L53.366,45.945,46.592,42.1Z" transform="translate(-7.716 -16.407)"/>
  <path id="Path_28" data-name="Path 28" class="cls-1" d="M52.7,63.606l14.891,8.605V64.4l-8.178-4.7Z" transform="translate(-20.537 -23.265)"/>
  <path id="Path_29" data-name="Path 29" class="cls-1" d="M28.813,39.952l26.853-15.5V16.7L22.1,36.046Z" transform="translate(-8.612 -6.508)"/>
  <path id="Path_30" data-name="Path 30" class="cls-1" d="M56.757,0H2.319A2.318,2.318,0,0,0,0,2.319V56.757a2.318,2.318,0,0,0,2.319,2.319H56.757a2.318,2.318,0,0,0,2.319-2.319V2.319A2.244,2.244,0,0,0,56.757,0ZM49.678,18.8a1.259,1.259,0,0,1-.61,1.038L41.5,24.168l7.568,4.394a1.426,1.426,0,0,1,.427.427,1.18,1.18,0,0,1-.427,1.587L41.5,34.97l7.568,4.394a1.087,1.087,0,0,1,.61.976V51.448a1.159,1.159,0,0,1-1.16,1.16.852.852,0,0,1-.549-.183L29.538,41.805,11.229,52.424a1.031,1.031,0,0,1-.61.183,1.159,1.159,0,0,1-1.16-1.16V40.34a1.087,1.087,0,0,1,.61-.976l7.568-4.394L10.07,30.576a1.18,1.18,0,0,1-.427-1.587,1.426,1.426,0,0,1,.427-.427l7.568-4.394L10.07,19.774a1.181,1.181,0,0,1-.61-1.038V7.69a1.159,1.159,0,0,1,1.16-1.16,1.031,1.031,0,0,1,.61.183L29.6,17.332,47.908,6.713a1.031,1.031,0,0,1,.61-.183,1.159,1.159,0,0,1,1.16,1.16Z" transform="translate(0 0)"/>
</svg>
